<?xml version="1.0" encoding="utf-8"?>
<!-- Svg Vector Icons : http://www.onlinewebfonts.com/icon -->
<!DOCTYPE svg PUBLIC "-//W3C//DTD SVG 1.1//EN" "http://www.w3.org/Graphics/SVG/1.1/DTD/svg11.dtd">
<svg version="1.1" xmlns="http://www.w3.org/2000/svg" xmlns:xlink="http://www.w3.org/1999/xlink" x="0px" y="0px" viewBox="0 0 1000 1000" enable-background="new 0 0 1000 1000" xml:space="preserve">
<metadata> Svg Vector Icons : http://www.onlinewebfonts.com/icon </metadata>
<g><path d="M343.9,484c-82.1,0-149,66.8-149,149s66.8,149,149,149c82.1,0,149-66.8,149-149C492.9,550.8,426.1,484,343.9,484L343.9,484L343.9,484L343.9,484z M343.9,742.2c-60.2,0-109.2-49-109.2-109.2c0-60.2,49-109.2,109.2-109.2s109.2,49,109.2,109.2S404.2,742.2,343.9,742.2L343.9,742.2L343.9,742.2L343.9,742.2z M672.2,562.8c-14.1-1.3-56.9-10.4-68.1-34.9c-9.8-21.3,6.4-51.3,21.7-72.8l9.5-13.3l-93-97.9l-14.1,10.6c-12.8,9.6-54.5,34.3-78.2,23c-19.1-9.1-24.3-41.7-25.3-67.5l-0.7-19.1h-73.7h-73.7l-0.8,19.1c-1,25.8-6.2,58.5-25.3,67.5c-23.7,11.3-65.5-13.5-78.2-23L158,343.8l-93,97.9l9.5,13.3c15.3,21.4,31.4,51.4,21.7,72.7c-11.2,24.4-53,33.5-68.2,35L10,564.5v59.7h0v73.1l18.1,1.6c15.1,1.4,57,10.6,68.2,35c9.7,21.3-6.5,51.3-21.7,72.7L65,820l92.9,97.9l14.2-10.6c12.8-9.6,54.5-34.3,78.2-23c19.1,9.1,24.3,41.7,25.3,67.5l0.7,19.1h73.7h73.7l0.7-19.1c1-25.8,6.2-58.5,25.3-67.5c23.8-11.3,65.4,13.5,78.2,23l14.1,10.6l93-97.9l-9.5-13.3c-15.3-21.5-31.5-51.5-21.7-72.8c11.2-24.5,54-33.6,68.1-34.9l18.1-1.6v-72.5h0v-60.3L672.2,562.8L672.2,562.8L672.2,562.8L672.2,562.8z M650.5,624.2L650.5,624.2l0,38c-24.5,5.2-66.1,19.1-82.6,55.1c-12.7,27.7-7.2,60.8,16.3,98.7l-47.1,49.6c-22.9-13.9-67.2-34.8-104.2-17.3c-26.1,12.3-41.7,40.1-46.6,82.8h-36.2h-36.2c-4.9-42.7-20.5-70.5-46.6-82.8c-37-17.5-81.3,3.4-104.2,17.3L116,816c23.5-37.9,29-71,16.3-98.7c-16.5-36-58.1-49.9-82.6-55.1v-37.4h0v-25.3c24.5-5.2,66.1-19.1,82.6-55.1c12.7-27.7,7.2-60.8-16.3-98.7l47.1-49.6c22.9,13.9,67.2,34.8,104.2,17.3c26.1-12.3,41.7-40.1,46.6-82.8h36.2h36.2c4.9,42.7,20.5,70.5,46.6,82.8c37,17.5,81.3-3.4,104.2-17.3l47.1,49.6c-23.5,37.9-29,71-16.3,98.7c16.5,36,58.1,49.9,82.6,55.1L650.5,624.2L650.5,624.2L650.5,624.2L650.5,624.2L650.5,624.2z M779,146.8c-50,0-90.7,40.7-90.7,90.7c0,50,40.7,90.7,90.7,90.7c50,0,90.7-40.7,90.7-90.7C869.8,187.5,829.1,146.8,779,146.8L779,146.8L779,146.8L779,146.8z M779,304.1c-36.7,0-66.5-29.9-66.5-66.5c0-36.7,29.9-66.5,66.5-66.5s66.5,29.8,66.5,66.5C845.6,274.2,815.7,304.1,779,304.1L779,304.1L779,304.1L779,304.1z M979,194.8c-8.6-0.8-34.7-6.4-41.5-21.3c-6-13,3.9-31.3,13.2-44.3l5.8-8.1l-56.6-59.6l-8.6,6.5c-7.8,5.8-33.2,20.9-47.6,14c-11.6-5.5-14.8-25.4-15.4-41.1l-0.5-11.6h-44.9h-44.9l-0.5,11.6c-0.6,15.7-3.8,35.6-15.4,41.1c-14.4,6.9-39.9-8.2-47.6-14l-8.6-6.5l-56.6,59.7l5.8,8.1c9.3,13,19.2,31.3,13.2,44.3c-6.8,14.9-32.3,20.4-41.5,21.3l-11,1v36.4h0v44.5l11,1c9.2,0.9,34.7,6.4,41.5,21.3c5.9,13-3.9,31.3-13.2,44.3l-5.8,8.1l56.6,59.7l8.6-6.5c7.8-5.8,33.2-20.9,47.6-14c11.6,5.5,14.8,25.4,15.4,41.1l0.5,11.6h44.9h44.9l0.5-11.6c0.6-15.7,3.8-35.6,15.4-41.1c14.5-6.9,39.9,8.2,47.6,14l8.6,6.5l56.6-59.6l-5.8-8.1c-9.3-13.1-19.2-31.4-13.2-44.3c6.8-14.9,32.9-20.5,41.5-21.3l11-1v-44.2h0v-36.8L979,194.8L979,194.8L979,194.8L979,194.8z M965.8,232.2L965.8,232.2l0,23.2c-14.9,3.2-40.2,11.6-50.3,33.5c-7.7,16.9-4.4,37.1,9.9,60.1l-28.7,30.2c-14-8.5-40.9-21.2-63.5-10.5c-15.9,7.5-25.4,24.5-28.4,50.4h-22.1h-22.1c-3-26-12.5-42.9-28.4-50.4c-22.5-10.7-49.5,2-63.5,10.5L640.2,349c14.3-23.1,17.7-43.3,9.9-60.1c-10.1-21.9-35.4-30.4-50.3-33.5v-22.8h0v-15.4c14.9-3.2,40.2-11.6,50.3-33.5c7.7-16.9,4.4-37.1-9.9-60.1l28.7-30.2c14,8.5,40.9,21.2,63.5,10.5c15.9-7.5,25.4-24.5,28.4-50.4h22.1h22.1c3,26,12.5,42.9,28.4,50.4c22.5,10.7,49.5-2.1,63.5-10.5l28.7,30.2c-14.3,23.1-17.7,43.3-9.9,60.1c10.1,21.9,35.4,30.4,50.3,33.5L965.8,232.2L965.8,232.2L965.8,232.2L965.8,232.2L965.8,232.2z"/></g>
</svg>